<?xml version="1.0" encoding="UTF-8"?>
<svg id="Livello_2" data-name="Livello 2" xmlns="http://www.w3.org/2000/svg" viewBox="0 0 168 70">
  <defs>
    <style>
      .cls-1 {
        fill: #af3f3f;
      }
    </style>
  </defs>
  <g id="Livello_1-2" data-name="Livello 1">
    <g>
      <g>
        <path class="cls-1" d="M42.53,68.84v-2.53c.41.68.96,1.18,1.65,1.51.7.33,1.46.49,2.28.49.73,0,1.4-.13,2.01-.38.61-.26.96-.62,1.05-1.1.02-.17.03-.28.03-.34,0-.39-.13-.72-.39-.99s-.59-.51-.98-.7c-.39-.19-.93-.41-1.62-.67-.87-.33-1.58-.64-2.13-.93s-1.01-.67-1.38-1.16c-.38-.48-.55-1.09-.52-1.82,0-.65.22-1.21.63-1.7.41-.48.95-.86,1.63-1.12s1.41-.39,2.19-.39,1.43.09,2,.27c.57.18,1.1.42,1.58.74v2.47c-.43-.61-.96-1.07-1.6-1.35-.64-.29-1.3-.43-1.99-.43-.75,0-1.38.14-1.9.41-.52.27-.77.67-.77,1.19,0,.37.13.68.38.95s.58.49.97.67c.39.18.92.4,1.58.65.86.32,1.57.63,2.12.91.55.28,1.01.66,1.4,1.13s.58,1.06.58,1.76c0,.18,0,.31-.02.41-.06.68-.32,1.26-.78,1.75s-1.04.86-1.75,1.11c-.71.25-1.46.38-2.26.38-1.44,0-2.77-.39-4-1.16Z"/>
        <path class="cls-1" d="M53.44,69.75c.33-.42.53-.91.58-1.49v-9.54c-.05-.57-.24-1.07-.58-1.49h2.92c-.34.41-.54.9-.59,1.49v9.54c.05.58.25,1.08.59,1.49h-2.92Z"/>
        <path class="cls-1" d="M61.64,69.04c-1-.58-1.79-1.36-2.37-2.34-.58-.98-.87-2.05-.87-3.22s.29-2.24.88-3.22,1.38-1.76,2.39-2.33c1-.57,2.1-.86,3.29-.86.64,0,1.22.07,1.76.22.54.15,1.05.37,1.54.67v2.46c-.29-.34-.55-.62-.78-.82-.23-.2-.56-.39-.99-.57-.43-.18-.95-.27-1.57-.27-.88,0-1.69.21-2.41.63s-1.29,1-1.71,1.72c-.42.73-.62,1.52-.62,2.37s.21,1.64.62,2.37c.41.72.97,1.3,1.69,1.73.71.43,1.51.64,2.38.64.65,0,1.18-.08,1.62-.24s.77-.34,1.01-.54c.24-.2.5-.45.78-.77v2.38c-.44.27-.94.48-1.51.63-.57.15-1.17.23-1.82.23-1.19,0-2.28-.29-3.28-.87Z"/>
        <path class="cls-1" d="M70.67,69.75c.33-.42.53-.91.58-1.49v-9.54c-.05-.57-.24-1.07-.58-1.49h2.92c-.34.41-.54.9-.59,1.49v9.54c.05.58.25,1.08.59,1.49h-2.92Z"/>
        <path class="cls-1" d="M75.96,69.75c.2-.23.34-.48.43-.74.09-.27.14-.51.15-.74v-9.54c0-.23-.06-.48-.15-.74-.09-.27-.23-.51-.43-.74h2.92c-.34.41-.54.9-.59,1.49v9.34l4.76.02c.28,0,.53-.03.73-.09s.45-.21.72-.45l-.48,2.22h-8.06Z"/>
        <path class="cls-1" d="M86.58,69.75c.33-.42.53-.91.58-1.49v-9.54c-.05-.57-.24-1.07-.58-1.49h2.92c-.34.41-.54.9-.59,1.49v9.54c.05.58.25,1.08.59,1.49h-2.92Z"/>
        <path class="cls-1" d="M91.23,69.75c.44-.43.78-.98,1.02-1.64l3.22-9.62c.04-.18.06-.36.06-.56,0-.28-.05-.51-.16-.69h3.15c-.1.18-.16.41-.16.7,0,.22.03.43.08.63l3.23,9.75c.22.56.54,1.04.95,1.44h-2.87c.1-.14.16-.38.16-.74,0-.22-.03-.45-.08-.69l-.53-1.61h-4.75l-.55,1.67c-.04.17-.06.37-.06.61,0,.37.05.62.16.75h-2.87ZM96.94,59.28l-1.97,5.79h3.92l-1.95-5.79Z"/>
        <path class="cls-1" d="M104.2,69.75c.38-.47.57-.96.58-1.49v-9.57c-.08-.61-.28-1.1-.58-1.45h2.75c-.1.14-.16.28-.16.42,0,.14.05.29.14.47l5.21,8.02v-7.43c-.02-.52-.21-1.02-.58-1.49h2.92c-.36.47-.56.97-.59,1.49v9.62c.02.26.08.5.16.73.09.22.23.45.41.68h-2.76c.13-.16.2-.34.2-.56,0-.14-.03-.27-.09-.41l-5.29-8.07v7.56c.03.52.23,1.02.59,1.49h-2.92Z"/>
        <path class="cls-1" d="M116.88,69.75c.33-.42.53-.9.58-1.44v-9.51c-.04-.61-.23-1.14-.58-1.56h7.59l.52,2.14c-.22-.2-.44-.32-.67-.38-.23-.05-.52-.08-.86-.08h-4.25v3.71h3.9c.26,0,.49-.02.68-.05.19-.04.39-.12.59-.26v2.3c-.19-.14-.38-.22-.57-.26-.19-.04-.42-.05-.68-.05h-3.92v3.79l4.7-.02c.35,0,.66-.03.91-.08s.47-.18.66-.39l-.55,2.17-8.04-.03Z"/>
      </g>
      <g>
        <path class="cls-1" d="M20.12,12.11c-.17-.64-.26-1.22-.26-1.73,0-.79.16-1.44.47-1.94h-9.25c.28.55.42,1.21.42,1.94,0,.51-.06,1.01-.17,1.49L2.75,37.95c-.32.82-.67,1.57-1.06,2.29-.39.7-.96,1.4-1.69,2.07h8.54c-.32-.34-.47-1.05-.47-2.11,0-.57.04-1.08.12-1.53l1.44-4.32,12.09.04,1.35,4.14c.12.48.17,1.08.17,1.78,0,.93-.13,1.6-.38,2h8.5c-1.13-1.08-1.99-2.38-2.59-3.89l-8.66-26.31ZM15.68,14.67l4.9,14.69h-9.8l4.9-14.69ZM20.59,29.35l-4.9-14.69h0s4.9,14.69,4.9,14.69h0Z"/>
        <path class="cls-1" d="M54.36,27.36c.7.65,1.07,1.36,1.1,2.12v7.12c-1.49.65-3.2.97-5.12.97-2.2-.03-4.21-.59-6.02-1.69s-3.25-2.58-4.29-4.45c-1.04-1.86-1.56-3.9-1.56-6.1s.51-4.24,1.54-6.1c1.03-1.86,2.44-3.35,4.23-4.45,1.79-1.1,3.78-1.65,5.98-1.65,1.52,0,2.83.23,3.93.7,1.1.47,1.96.99,2.58,1.57.62.58,1.3,1.31,2.03,2.18v-7.37c-1.33-.79-2.66-1.36-3.99-1.72-1.34-.35-2.81-.53-4.42-.53-3.16,0-6.06.77-8.71,2.31-2.65,1.54-4.74,3.64-6.28,6.29-1.54,2.65-2.3,5.58-2.3,8.77s.77,6.11,2.3,8.77c1.54,2.65,3.64,4.76,6.3,6.31,2.66,1.55,5.62,2.33,8.86,2.33,2,0,3.91-.28,5.73-.83,1.82-.55,3.36-1.23,4.63-2.05v-16.26l-8.67,2.63c.73.11,1.45.49,2.16,1.14Z"/>
        <path class="cls-1" d="M95.63,35.61c.65,0,1.28.1,1.88.26.42-.55.81-1.14,1.16-1.75,1.56-2.67,2.33-5.6,2.33-8.79s-.77-6.05-2.33-8.73c-.35-.61-.74-1.18-1.15-1.73-.61.16-1.24.28-1.89.28-3.86,0-7.03-2.94-7.46-6.69-1.41-.38-2.88-.57-4.41-.57-1.64,0-3.2.2-4.69.61-.47,3.73-3.61,6.65-7.46,6.65-.63,0-1.22-.1-1.8-.25-.39.54-.76,1.09-1.11,1.69-1.51,2.67-2.28,5.58-2.28,8.75s.77,6.12,2.28,8.79c.35.6.73,1.17,1.13,1.72.57-.15,1.16-.23,1.78-.23,3.84,0,6.97,2.89,7.45,6.6,1.5.41,3.06.61,4.7.61,1.53,0,3-.19,4.41-.57.47-3.73,3.62-6.65,7.46-6.65ZM83.75,37.65c-2.31,0-4.38-.54-6.2-1.65-1.82-1.09-3.23-2.59-4.23-4.49-.99-1.9-1.5-3.95-1.5-6.18s.51-4.29,1.5-6.17c1-1.88,2.42-3.37,4.23-4.46,1.82-1.11,3.88-1.66,6.2-1.66s4.28.55,6.08,1.66c1.8,1.09,3.22,2.58,4.25,4.46,1.03,1.88,1.54,3.94,1.54,6.17s-.51,4.29-1.54,6.17c-1.03,1.88-2.44,3.37-4.25,4.49-1.8,1.11-3.83,1.66-6.08,1.66Z"/>
        <path class="cls-1" d="M130.82,39.6c-.89-1.18-1.72-2.46-2.47-3.85l-3.73-6.53c2.4-1.01,4.13-2.42,5.21-4.23,1.06-1.81,1.6-3.86,1.6-6.15v-.12c0-2.01-.51-3.79-1.53-5.34-1-1.56-2.39-2.77-4.13-3.64-1.75-.87-3.7-1.31-5.83-1.31h-13.66c.51.58.9,1.3,1.19,2.11.28.82.44,1.52.47,2.11v25.41c-.06,1.59-.61,3-1.66,4.24h8.67c-1.02-1.24-1.56-2.65-1.62-4.24v-5.54l6.14-1.62,4.64,8.22c.32.74.47,1.41.47,2.04,0,.52-.1.92-.33,1.14h9.52c-1.08-.63-2.05-1.53-2.94-2.71ZM126.02,18.93c0-.09-.02-.18-.02-.27,0,.09.02.17.02.27h0ZM120.27,13.6c1.31,0,2.38.28,3.25.8-.87-.52-1.94-.8-3.25-.8h0ZM113.33,26.98h0v-13.38h6.93c1.51,0,2.7.37,3.63,1.05.07.06.16.1.23.16.06.05.12.1.18.15.08.06.16.11.22.18.99,1.04,1.48,2.3,1.48,3.79v.42c0,1.47-.45,2.7-1.35,3.69-.9.99-2.24,1.69-4.02,2.11l-7.31,1.82h0s0,0,0,0h0ZM123.91,23.73s-.04.02-.05.03c.02-.01.04-.02.05-.03Z"/>
        <polygon class="cls-1" points="153.84 5.8 151.35 0 146.82 0 150.67 5.8 153.84 5.8"/>
        <path class="cls-1" d="M168,42.31c-1.12-1.08-1.98-2.38-2.58-3.89l-8.67-26.31c-.13-.52-.2-1.11-.2-1.73,0-.82.15-1.46.42-1.94h-9.25c.28.55.42,1.21.42,1.94,0,.51-.06,1.01-.17,1.49l-8.63,26.18c-.58,1.69-1.48,3.12-2.71,4.27h8.54c-.33-.42-.51-1.11-.51-2.07,0-.45.07-.99.22-1.62l1.4-4.27,12.09.04,1.35,4.14c.16.54.25,1.12.25,1.75,0,.95-.15,1.63-.47,2.03h8.5ZM157.22,29.35h0s-9.8,0-9.8,0l4.9-14.69h0s0,0,0,0h0s0,0,0,0l4.9,14.69h0s0,0,0,0Z"/>
        <path class="cls-1" d="M83.72,15.96c-5.18,0-9.39,4.21-9.39,9.42s4.21,9.4,9.39,9.4,9.39-4.21,9.39-9.4-4.21-9.42-9.39-9.42Z"/>
        <path class="cls-1" d="M71.21,13.22c.13,0,.26.03.39.03,2.56,0,4.7-1.71,5.41-4.05.15-.51.26-1.05.26-1.62,0-3.15-2.55-5.69-5.67-5.69s-5.67,2.54-5.67,5.69,2.34,5.44,5.28,5.64Z"/>
        <path class="cls-1" d="M95.62,1.89c-3.13,0-5.67,2.54-5.67,5.69,0,.54.1,1.06.25,1.57.7,2.36,2.85,4.1,5.43,4.1.17,0,.32-.03.49-.04,2.9-.25,5.18-2.67,5.18-5.63,0-3.15-2.55-5.69-5.67-5.69Z"/>
        <path class="cls-1" d="M71.6,37.49c-.12,0-.23.03-.35.04-2.97.19-5.33,2.62-5.33,5.64s2.55,5.69,5.67,5.69,5.67-2.55,5.67-5.69c0-.58-.12-1.14-.28-1.68-.73-2.32-2.85-4.01-5.4-4.01Z"/>
        <path class="cls-1" d="M96.09,37.55c-.16-.01-.31-.06-.47-.06-2.56,0-4.7,1.72-5.41,4.07-.15.51-.26,1.05-.26,1.62,0,3.13,2.55,5.69,5.67,5.69s5.67-2.55,5.67-5.69-2.3-5.39-5.21-5.63Z"/>
      </g>
    </g>
  </g>
</svg>