<?xml version="1.0" encoding="UTF-8"?>
<svg id="Livello_2" data-name="Livello 2" xmlns="http://www.w3.org/2000/svg" viewBox="0 0 115 48">
  <defs>
    <style>
      .cls-1 {
        fill: #af3f3f;
      }
    </style>
  </defs>
  <g id="Livello_1-2" data-name="Livello 1">
    <g>
      <g>
        <path class="cls-1" d="M29.11,47.21v-1.74c.28.47.66.81,1.13,1.04.48.23,1,.34,1.56.34.5,0,.96-.09,1.38-.26.42-.18.66-.43.72-.76.01-.11.02-.19.02-.24,0-.26-.09-.49-.27-.68s-.4-.35-.67-.48c-.27-.13-.64-.28-1.11-.46-.6-.23-1.08-.44-1.46-.64s-.69-.46-.95-.79c-.26-.33-.37-.75-.35-1.25,0-.44.15-.83.43-1.16.28-.33.65-.59,1.12-.77s.96-.27,1.5-.27.98.06,1.37.18c.39.12.75.29,1.08.5v1.69c-.29-.42-.66-.73-1.1-.93-.44-.2-.89-.29-1.36-.29-.51,0-.95.09-1.3.28-.35.19-.53.46-.53.82,0,.25.09.47.26.65s.4.34.66.46c.27.13.63.27,1.08.45.59.22,1.07.43,1.45.62.37.19.69.45.96.78s.4.73.4,1.21c0,.12,0,.21-.01.28-.04.46-.22.86-.53,1.2s-.71.59-1.2.76c-.48.17-1,.26-1.55.26-.98,0-1.9-.26-2.74-.79Z"/>
        <path class="cls-1" d="M36.58,47.83c.23-.29.36-.63.4-1.02v-6.54c-.04-.39-.17-.73-.4-1.02h2c-.24.28-.37.62-.41,1.02v6.54c.04.4.17.74.41,1.02h-2Z"/>
        <path class="cls-1" d="M42.19,47.34c-.68-.4-1.23-.93-1.62-1.6-.4-.67-.6-1.41-.6-2.21s.2-1.54.6-2.21.95-1.21,1.64-1.6c.69-.39,1.44-.59,2.25-.59.43,0,.84.05,1.2.15.37.1.72.25,1.05.46v1.68c-.2-.24-.38-.42-.53-.56-.16-.14-.38-.27-.68-.39-.3-.12-.65-.18-1.07-.18-.61,0-1.16.14-1.65.43s-.89.68-1.17,1.18c-.28.5-.43,1.04-.43,1.63s.14,1.13.42,1.62c.28.5.67.89,1.15,1.19.49.29,1.03.44,1.63.44.44,0,.81-.06,1.11-.17s.53-.23.69-.37c.16-.14.34-.31.53-.53v1.63c-.3.19-.64.33-1.03.43-.39.1-.8.16-1.25.16-.81,0-1.56-.2-2.24-.6Z"/>
        <path class="cls-1" d="M48.37,47.83c.23-.29.36-.63.4-1.02v-6.54c-.04-.39-.17-.73-.4-1.02h2c-.24.28-.37.62-.41,1.02v6.54c.04.4.17.74.41,1.02h-2Z"/>
        <path class="cls-1" d="M52,47.83c.14-.16.23-.33.29-.51.06-.18.09-.35.1-.51v-6.54c0-.16-.04-.33-.1-.51-.06-.18-.16-.35-.29-.51h2c-.24.28-.37.62-.41,1.02v6.4h3.26c.19.01.36-.01.5-.05s.31-.15.49-.31l-.33,1.52h-5.52Z"/>
        <path class="cls-1" d="M59.26,47.83c.23-.29.36-.63.4-1.02v-6.54c-.04-.39-.17-.73-.4-1.02h2c-.24.28-.37.62-.41,1.02v6.54c.04.4.17.74.41,1.02h-2Z"/>
        <path class="cls-1" d="M62.45,47.83c.3-.29.53-.67.69-1.13l2.2-6.6c.03-.12.04-.25.04-.39,0-.19-.04-.35-.11-.47h2.16c-.07.12-.11.28-.11.48,0,.15.02.29.05.43l2.21,6.68c.15.39.37.72.65.99h-1.97c.07-.09.11-.26.11-.5,0-.15-.02-.31-.05-.47l-.36-1.1h-3.25l-.37,1.15c-.03.11-.04.25-.04.42,0,.25.04.42.11.51h-1.97ZM66.36,40.65l-1.35,3.97h2.68l-1.34-3.97Z"/>
        <path class="cls-1" d="M71.33,47.83c.26-.32.39-.66.4-1.02v-6.56c-.06-.42-.19-.75-.4-1h1.88c-.07.09-.11.19-.11.29,0,.09.03.2.1.32l3.57,5.5v-5.1c-.01-.36-.15-.7-.4-1.02h2c-.25.32-.38.66-.41,1.02v6.6c.01.18.05.35.11.5.06.15.16.31.28.47h-1.89c.09-.11.14-.24.14-.39,0-.09-.02-.19-.06-.28l-3.62-5.53v5.18c.02.36.16.7.41,1.02h-2Z"/>
        <path class="cls-1" d="M80.01,47.83c.23-.29.36-.61.4-.99v-6.52c-.03-.42-.16-.78-.4-1.07h5.19l.35,1.47c-.15-.14-.3-.22-.46-.26-.16-.04-.35-.05-.59-.05h-2.91v2.54h2.67c.18,0,.33-.01.46-.04.13-.02.27-.08.4-.18v1.58c-.13-.09-.26-.15-.39-.18-.13-.02-.29-.04-.46-.04h-2.68v2.6h3.22c.24-.01.45-.03.62-.06s.32-.12.45-.27l-.37,1.49-5.5-.02Z"/>
      </g>
      <g>
        <path class="cls-1" d="M13.77,8.3c-.12-.44-.18-.84-.18-1.19,0-.54.11-.99.32-1.33h-6.33c.19.38.29.83.29,1.33,0,.35-.04.69-.12,1.02L1.88,26.03c-.22.56-.46,1.08-.73,1.57-.27.48-.66.96-1.16,1.42h5.85c-.22-.23-.32-.72-.32-1.45,0-.39.03-.74.08-1.05l.99-2.96,8.28.03.93,2.84c.08.33.12.74.12,1.22,0,.64-.09,1.1-.26,1.37h5.82c-.78-.74-1.36-1.63-1.77-2.67l-5.93-18.04ZM10.74,10.06l3.35,10.07h-6.71l3.35-10.07ZM14.09,20.13l-3.36-10.07h0s3.36,10.07,3.36,10.07h0Z"/>
        <path class="cls-1" d="M37.21,18.76c.48.45.73.93.75,1.45v4.88c-1.02.45-2.19.67-3.5.67-1.51-.02-2.88-.41-4.12-1.16s-2.22-1.77-2.94-3.05c-.71-1.28-1.07-2.67-1.07-4.18s.35-2.9,1.06-4.18c.7-1.28,1.67-2.29,2.89-3.05,1.23-.76,2.59-1.13,4.09-1.13,1.04,0,1.94.16,2.69.48.75.32,1.34.68,1.77,1.07.42.4.89.9,1.39,1.5v-5.05c-.91-.54-1.82-.93-2.73-1.18-.92-.24-1.92-.36-3.02-.36-2.16,0-4.15.53-5.96,1.58-1.81,1.06-3.25,2.49-4.3,4.31-1.05,1.82-1.58,3.82-1.58,6.01s.53,4.19,1.58,6.01c1.05,1.82,2.49,3.26,4.31,4.33,1.82,1.07,3.84,1.6,6.06,1.6,1.37,0,2.68-.19,3.92-.57,1.24-.38,2.3-.85,3.17-1.41v-11.15l-5.93,1.8c.5.08.99.34,1.48.78Z"/>
        <path class="cls-1" d="M65.46,24.42c.45,0,.88.07,1.28.18.29-.38.56-.78.8-1.2,1.07-1.83,1.59-3.84,1.59-6.03s-.53-4.15-1.59-5.99c-.24-.42-.51-.81-.79-1.19-.42.11-.85.19-1.29.19-2.64,0-4.81-2.02-5.11-4.59-.97-.26-1.97-.39-3.02-.39-1.13,0-2.19.14-3.21.42-.32,2.56-2.47,4.56-5.11,4.56-.43,0-.84-.07-1.24-.17-.27.37-.52.75-.76,1.16-1.04,1.83-1.56,3.83-1.56,6s.53,4.2,1.56,6.03c.24.41.5.8.78,1.18.39-.1.8-.16,1.22-.16,2.63,0,4.77,1.98,5.1,4.53,1.03.28,2.09.42,3.22.42,1.05,0,2.05-.13,3.02-.39.32-2.56,2.48-4.56,5.11-4.56ZM57.33,25.82c-1.58,0-3-.37-4.24-1.13-1.25-.75-2.21-1.78-2.9-3.08-.68-1.3-1.03-2.71-1.03-4.24s.35-2.94,1.03-4.23c.69-1.29,1.65-2.31,2.9-3.06,1.25-.76,2.66-1.14,4.24-1.14s2.93.38,4.16,1.14c1.24.75,2.2,1.77,2.91,3.06.71,1.29,1.06,2.7,1.06,4.23s-.35,2.94-1.06,4.23c-.71,1.29-1.67,2.31-2.91,3.08-1.24.76-2.62,1.14-4.16,1.14Z"/>
        <path class="cls-1" d="M89.55,27.16c-.61-.81-1.18-1.69-1.69-2.64l-2.55-4.48c1.64-.69,2.83-1.66,3.57-2.9.73-1.24,1.1-2.65,1.1-4.22v-.08c0-1.38-.35-2.6-1.05-3.66-.69-1.07-1.63-1.9-2.83-2.5-1.2-.6-2.53-.9-3.99-.9h-9.35c.35.4.62.89.82,1.45.19.56.3,1.04.32,1.45v17.42c-.04,1.09-.42,2.06-1.14,2.91h5.94c-.7-.85-1.07-1.82-1.11-2.91v-3.8l4.2-1.11,3.18,5.64c.22.51.32.97.32,1.4,0,.36-.07.63-.23.78h6.51c-.74-.43-1.4-1.05-2.01-1.86ZM86.26,12.98c0-.06-.01-.12-.02-.18,0,.06.02.12.02.18h0ZM82.33,9.32c.9,0,1.63.19,2.22.55-.59-.35-1.33-.55-2.22-.55h0ZM77.58,18.5h0v-9.18h4.75c1.03,0,1.85.26,2.48.72.05.04.11.07.16.11.04.03.08.07.13.1.05.04.11.08.15.13.68.71,1.02,1.58,1.02,2.6v.29c0,1.01-.31,1.85-.93,2.53-.62.68-1.53,1.16-2.75,1.45l-5.01,1.25h0s0,0,0,0h0ZM84.82,16.27s-.03.02-.04.02c.01,0,.03-.02.04-.02Z"/>
        <polygon class="cls-1" points="105.31 3.98 103.6 0 100.5 0 103.14 3.98 105.31 3.98"/>
        <path class="cls-1" d="M115,29.01c-.77-.74-1.35-1.63-1.76-2.67l-5.94-18.04c-.09-.36-.14-.76-.14-1.19,0-.56.1-1,.29-1.33h-6.33c.19.38.29.83.29,1.33,0,.35-.04.69-.12,1.02l-5.91,17.95c-.4,1.16-1.02,2.14-1.85,2.93h5.85c-.23-.29-.35-.76-.35-1.42,0-.31.05-.68.15-1.11l.96-2.93,8.28.03.93,2.84c.11.37.17.77.17,1.2,0,.65-.1,1.12-.32,1.39h5.82ZM107.62,20.13h0s-6.71,0-6.71,0l3.35-10.07h0s0,0,0,0h0s0,0,0,0l3.35,10.07h0s0,0,0,0Z"/>
        <path class="cls-1" d="M57.31,10.94c-3.55,0-6.42,2.89-6.42,6.46s2.88,6.45,6.42,6.45,6.42-2.89,6.42-6.45-2.88-6.46-6.42-6.46Z"/>
        <path class="cls-1" d="M48.74,9.06c.09,0,.18.02.27.02,1.75,0,3.22-1.17,3.71-2.78.1-.35.18-.72.18-1.11,0-2.16-1.74-3.9-3.88-3.9s-3.88,1.74-3.88,3.9,1.6,3.73,3.62,3.87Z"/>
        <path class="cls-1" d="M65.46,1.3c-2.14,0-3.88,1.74-3.88,3.9,0,.37.07.73.17,1.08.48,1.62,1.95,2.81,3.72,2.81.12,0,.22-.02.34-.03,1.98-.17,3.55-1.83,3.55-3.86,0-2.16-1.74-3.9-3.88-3.9Z"/>
        <path class="cls-1" d="M49.01,25.71c-.08,0-.16.02-.24.03-2.03.13-3.65,1.8-3.65,3.87s1.74,3.9,3.88,3.9,3.88-1.75,3.88-3.9c0-.4-.08-.78-.19-1.15-.5-1.59-1.95-2.75-3.7-2.75Z"/>
        <path class="cls-1" d="M65.78,25.75c-.11,0-.21-.04-.32-.04-1.75,0-3.22,1.18-3.71,2.79-.1.35-.18.72-.18,1.11,0,2.15,1.74,3.9,3.88,3.9s3.88-1.75,3.88-3.9-1.57-3.7-3.57-3.86Z"/>
      </g>
    </g>
  </g>
</svg>